<?xml version="1.0" encoding="UTF-8" standalone="no"?>
<!DOCTYPE svg PUBLIC "-//W3C//DTD SVG 1.1//EN"
 "http://www.w3.org/Graphics/SVG/1.1/DTD/svg11.dtd">
<!-- Generated by graphviz version 2.43.0 (0)
 -->
<!-- Title: G Pages: 1 -->
<svg width="465pt" height="664pt"
 viewBox="0.00 0.00 465.23 664.34" xmlns="http://www.w3.org/2000/svg" xmlns:xlink="http://www.w3.org/1999/xlink">
<g id="graph0" class="graph" transform="scale(1 1) rotate(0) translate(4 660.34)">
<title>G</title><style>.edge>path:hover{stroke-width:8}</style>
<polygon fill="white" stroke="transparent" points="-4,4 -4,-660.34 461.23,-660.34 461.23,4 -4,4"/>
<!-- clingo -->
<g id="node1" class="node">
<title>clingo</title><style>.edge>path:hover{stroke-width:8}</style>
<ellipse fill="#e72222" stroke="black" cx="140.43" cy="-638.34" rx="27.16" ry="18"/>
<text text-anchor="middle" x="140.43" y="-635.84" font-family="Helvetica,sans-Serif" font-size="10.00" fill="#ffffff">clingo</text>
</g>
<!-- eclingo_control -->
<g id="node4" class="node">
<title>eclingo_control</title><style>.edge>path:hover{stroke-width:8}</style>
<ellipse fill="#3ab0b0" stroke="black" cx="146.43" cy="-484.7" rx="38.78" ry="21.43"/>
<text text-anchor="middle" x="146.43" y="-487.7" font-family="Helvetica,sans-Serif" font-size="10.00" fill="#000000">eclingo.</text>
<text text-anchor="middle" x="146.43" y="-476.7" font-family="Helvetica,sans-Serif" font-size="10.00" fill="#000000">control</text>
</g>
<!-- clingo&#45;&gt;eclingo_control -->
<g id="edge1" class="edge">
<title>clingo&#45;&gt;eclingo_control</title><style>.edge>path:hover{stroke-width:8}</style>
<path fill="none" stroke="black" d="M167.17,-634.72C205.46,-629.3 273.98,-612.91 298.43,-564.13"/>
<path fill="none" stroke="black" d="M298.43,-562.13C320.83,-517.44 247.2,-498.44 194.71,-490.69"/>
<polygon fill="#e72222" stroke="black" points="194.91,-487.18 184.53,-489.29 193.96,-494.12 194.91,-487.18"/>
</g>
<!-- eclingo_parsing -->
<g id="node7" class="node">
<title>eclingo_parsing</title><style>.edge>path:hover{stroke-width:8}</style>
<ellipse fill="#249393" stroke="black" cx="258.43" cy="-21.21" rx="38.78" ry="21.43"/>
<text text-anchor="middle" x="258.43" y="-24.21" font-family="Helvetica,sans-Serif" font-size="10.00" fill="#ffffff">eclingo.</text>
<text text-anchor="middle" x="258.43" y="-13.21" font-family="Helvetica,sans-Serif" font-size="10.00" fill="#ffffff">parsing</text>
</g>
<!-- clingo&#45;&gt;eclingo_parsing -->
<g id="edge2" class="edge">
<title>clingo&#45;&gt;eclingo_parsing</title><style>.edge>path:hover{stroke-width:8}</style>
<path fill="none" stroke="black" d="M114.74,-632.16C88.66,-625.55 49.01,-611.55 26.43,-584.34 -8.33,-542.44 -0.58,-517.48 6.43,-463.49 9.57,-439.33 17.42,-434.66 20.43,-410.49"/>
<path fill="none" stroke="black" d="M20.43,-408.49C23.44,-351.7 17.11,-334.26 39.43,-281.95 77.67,-192.32 117.81,-188.42 173.43,-108.42"/>
<path fill="none" stroke="black" d="M173.43,-106.42C181.79,-93.92 182.4,-89.62 192.43,-78.43 203.12,-66.5 216.34,-54.77 228.12,-45.14"/>
<polygon fill="#e72222" stroke="black" points="230.38,-47.81 236,-38.83 226.01,-42.35 230.38,-47.81"/>
</g>
<!-- eclingo_parsing_transformers_parser_negations -->
<g id="node9" class="node">
<title>eclingo_parsing_transformers_parser_negations</title><style>.edge>path:hover{stroke-width:8}</style>
<ellipse fill="#2bacac" stroke="black" cx="199.43" cy="-318.72" rx="71.34" ry="36.54"/>
<text text-anchor="middle" x="199.43" y="-332.72" font-family="Helvetica,sans-Serif" font-size="10.00" fill="#000000">eclingo.</text>
<text text-anchor="middle" x="199.43" y="-321.72" font-family="Helvetica,sans-Serif" font-size="10.00" fill="#000000">parsing.</text>
<text text-anchor="middle" x="199.43" y="-310.72" font-family="Helvetica,sans-Serif" font-size="10.00" fill="#000000">transformers.</text>
<text text-anchor="middle" x="199.43" y="-299.72" font-family="Helvetica,sans-Serif" font-size="10.00" fill="#000000">parser_negations</text>
</g>
<!-- clingo&#45;&gt;eclingo_parsing_transformers_parser_negations -->
<g id="edge3" class="edge">
<title>clingo&#45;&gt;eclingo_parsing_transformers_parser_negations</title><style>.edge>path:hover{stroke-width:8}</style>
<path fill="none" stroke="black" d="M298.43,-562.13C328.63,-501.88 315.08,-475.79 298.43,-410.49"/>
<path fill="none" stroke="black" d="M298.43,-408.49C290.31,-386.09 272.64,-367.33 254.46,-352.91"/>
<polygon fill="#e72222" stroke="black" points="256.18,-349.82 246.09,-346.59 251.96,-355.41 256.18,-349.82"/>
</g>
<!-- eclingo_parsing_transformers_theory_parser_epistemic -->
<g id="node10" class="node">
<title>eclingo_parsing_transformers_theory_parser_epistemic</title><style>.edge>path:hover{stroke-width:8}</style>
<ellipse fill="#309191" stroke="black" cx="298.43" cy="-209.18" rx="96.75" ry="36.54"/>
<text text-anchor="middle" x="298.43" y="-223.18" font-family="Helvetica,sans-Serif" font-size="10.00" fill="#ffffff">eclingo.</text>
<text text-anchor="middle" x="298.43" y="-212.18" font-family="Helvetica,sans-Serif" font-size="10.00" fill="#ffffff">parsing.</text>
<text text-anchor="middle" x="298.43" y="-201.18" font-family="Helvetica,sans-Serif" font-size="10.00" fill="#ffffff">transformers.</text>
<text text-anchor="middle" x="298.43" y="-190.18" font-family="Helvetica,sans-Serif" font-size="10.00" fill="#ffffff">theory_parser_epistemic</text>
</g>
<!-- clingo&#45;&gt;eclingo_parsing_transformers_theory_parser_epistemic -->
<g id="edge4" class="edge">
<title>clingo&#45;&gt;eclingo_parsing_transformers_theory_parser_epistemic</title><style>.edge>path:hover{stroke-width:8}</style>
<path fill="none" stroke="black" d="M298.43,-408.49C280.41,-358.81 284,-297.41 289.76,-256.21"/>
<polygon fill="#e72222" stroke="black" points="293.24,-256.6 291.26,-246.19 286.32,-255.56 293.24,-256.6"/>
</g>
<!-- eclingo_prefixes -->
<g id="node11" class="node">
<title>eclingo_prefixes</title><style>.edge>path:hover{stroke-width:8}</style>
<ellipse fill="#3ab0b0" stroke="black" cx="403.43" cy="-484.7" rx="38.78" ry="21.43"/>
<text text-anchor="middle" x="403.43" y="-487.7" font-family="Helvetica,sans-Serif" font-size="10.00" fill="#000000">eclingo.</text>
<text text-anchor="middle" x="403.43" y="-476.7" font-family="Helvetica,sans-Serif" font-size="10.00" fill="#000000">prefixes</text>
</g>
<!-- clingo&#45;&gt;eclingo_prefixes -->
<g id="edge5" class="edge">
<title>clingo&#45;&gt;eclingo_prefixes</title><style>.edge>path:hover{stroke-width:8}</style>
<path fill="none" stroke="black" d="M298.43,-562.13C311.99,-535.08 340.18,-515.39 363.94,-502.77"/>
<polygon fill="#e72222" stroke="black" points="365.79,-505.76 373.13,-498.12 362.63,-499.52 365.79,-505.76"/>
</g>
<!-- clingo_ast -->
<g id="node2" class="node">
<title>clingo_ast</title><style>.edge>path:hover{stroke-width:8}</style>
<ellipse fill="#db2f2f" stroke="black" cx="403.43" cy="-638.34" rx="37.85" ry="18"/>
<text text-anchor="middle" x="403.43" y="-635.84" font-family="Helvetica,sans-Serif" font-size="10.00" fill="#ffffff">clingo.ast</text>
</g>
<!-- clingo_ast&#45;&gt;eclingo_parsing -->
<g id="edge6" class="edge">
<title>clingo_ast&#45;&gt;eclingo_parsing</title><style>.edge>path:hover{stroke-width:8}</style>
<path fill="none" stroke="black" d="M423.43,-317.72C404.87,-273.67 419.33,-257.8 423.43,-210.18"/>
</g>
<!-- clingo_ast&#45;&gt;eclingo_parsing_transformers_parser_negations -->
<g id="edge7" class="edge">
<title>clingo_ast&#45;&gt;eclingo_parsing_transformers_parser_negations</title><style>.edge>path:hover{stroke-width:8}</style>
<path fill="none" stroke="black" d="M403.43,-620.18C403.43,-605.34 403.43,-583.32 403.43,-564.13"/>
<path fill="none" stroke="black" d="M403.43,-562.13C403.43,-529.27 372.13,-534.21 355.43,-505.91 327.82,-459.12 346.69,-433.66 312.43,-391.49 298.52,-374.36 279.38,-360.06 260.8,-348.85"/>
<polygon fill="#db2f2f" stroke="black" points="262.45,-345.76 252.04,-343.76 258.93,-351.81 262.45,-345.76"/>
</g>
<!-- clingo_ast&#45;&gt;eclingo_parsing_transformers_theory_parser_epistemic -->
<g id="edge8" class="edge">
<title>clingo_ast&#45;&gt;eclingo_parsing_transformers_theory_parser_epistemic</title><style>.edge>path:hover{stroke-width:8}</style>
<path fill="none" stroke="black" d="M403.43,-562.13C404.13,-529.28 440.06,-536.74 451.43,-505.91 468.81,-458.81 442.47,-366.94 423.43,-319.72"/>
<path fill="none" stroke="black" d="M423.43,-317.72C410.95,-288.09 385.36,-263.76 360.57,-245.78"/>
<polygon fill="#db2f2f" stroke="black" points="362.41,-242.8 352.21,-239.93 358.4,-248.54 362.41,-242.8"/>
</g>
<!-- clingo_ast&#45;&gt;eclingo_prefixes -->
<g id="edge9" class="edge">
<title>clingo_ast&#45;&gt;eclingo_prefixes</title><style>.edge>path:hover{stroke-width:8}</style>
<path fill="none" stroke="black" d="M403.43,-562.13C403.43,-547.01 403.43,-530.2 403.43,-516.21"/>
<polygon fill="#db2f2f" stroke="black" points="406.93,-516.14 403.43,-506.14 399.93,-516.14 406.93,-516.14"/>
</g>
<!-- eclingo -->
<g id="node3" class="node">
<title>eclingo</title><style>.edge>path:hover{stroke-width:8}</style>
<ellipse fill="#06efef" stroke="black" cx="79.43" cy="-318.72" rx="30.72" ry="18"/>
<text text-anchor="middle" x="79.43" y="-316.22" font-family="Helvetica,sans-Serif" font-size="10.00" fill="#000000">eclingo</text>
</g>
<!-- eclingo_control&#45;&gt;eclingo -->
<g id="edge10" class="edge">
<title>eclingo_control&#45;&gt;eclingo</title><style>.edge>path:hover{stroke-width:8}</style>
<path fill="none" stroke="black" d="M152.43,-463.43C157.02,-444.15 161.08,-414.74 151.43,-391.49 148.79,-385.13 122.61,-359.85 102.58,-341.08"/>
<polygon fill="#3ab0b0" stroke="black" points="104.96,-338.52 95.26,-334.26 100.19,-343.64 104.96,-338.52"/>
</g>
<!-- eclingo_main -->
<g id="node6" class="node">
<title>eclingo_main</title><style>.edge>path:hover{stroke-width:8}</style>
<ellipse fill="#46a4a4" stroke="black" cx="95.43" cy="-409.49" rx="47.19" ry="18"/>
<text text-anchor="middle" x="95.43" y="-406.99" font-family="Helvetica,sans-Serif" font-size="10.00" fill="#000000">eclingo.main</text>
</g>
<!-- eclingo_control&#45;&gt;eclingo_main -->
<g id="edge11" class="edge">
<title>eclingo_control&#45;&gt;eclingo_main</title><style>.edge>path:hover{stroke-width:8}</style>
<path fill="none" stroke="black" d="M133.03,-464.46C126.89,-455.64 119.52,-445.07 112.94,-435.62"/>
<polygon fill="#3ab0b0" stroke="black" points="115.77,-433.56 107.18,-427.35 110.02,-437.56 115.77,-433.56"/>
</g>
<!-- eclingo_internal_states -->
<g id="node5" class="node">
<title>eclingo_internal_states</title><style>.edge>path:hover{stroke-width:8}</style>
<ellipse fill="#3bcece" stroke="black" cx="98.43" cy="-563.13" rx="62.87" ry="21.43"/>
<text text-anchor="middle" x="98.43" y="-566.13" font-family="Helvetica,sans-Serif" font-size="10.00" fill="#000000">eclingo.</text>
<text text-anchor="middle" x="98.43" y="-555.13" font-family="Helvetica,sans-Serif" font-size="10.00" fill="#000000">internal_states</text>
</g>
<!-- eclingo_internal_states&#45;&gt;eclingo_control -->
<g id="edge12" class="edge">
<title>eclingo_internal_states&#45;&gt;eclingo_control</title><style>.edge>path:hover{stroke-width:8}</style>
<path fill="none" stroke="black" d="M111.04,-542.05C116.47,-533.4 122.92,-523.14 128.81,-513.76"/>
<polygon fill="#3bcece" stroke="black" points="131.88,-515.45 134.24,-505.12 125.95,-511.73 131.88,-515.45"/>
</g>
<!-- eclingo_internal_states&#45;&gt;eclingo_main -->
<g id="edge13" class="edge">
<title>eclingo_internal_states&#45;&gt;eclingo_main</title><style>.edge>path:hover{stroke-width:8}</style>
<path fill="none" stroke="black" d="M20.43,-483.7C16.6,-459.97 36.7,-441.23 57.05,-428.65"/>
<polygon fill="#3bcece" stroke="black" points="58.81,-431.68 65.72,-423.64 55.31,-425.62 58.81,-431.68"/>
</g>
<!-- eclingo_internal_states&#45;&gt;eclingo_parsing -->
<g id="edge14" class="edge">
<title>eclingo_internal_states&#45;&gt;eclingo_parsing</title><style>.edge>path:hover{stroke-width:8}</style>
<path fill="none" stroke="black" d="M66.22,-544.56C46.62,-531.43 24.57,-511.34 20.43,-485.7"/>
<path fill="none" stroke="black" d="M20.43,-483.7C15.24,-451.58 16.42,-442.78 20.43,-410.49"/>
</g>
<!-- eclingo_main&#45;&gt;eclingo -->
<g id="edge15" class="edge">
<title>eclingo_main&#45;&gt;eclingo</title><style>.edge>path:hover{stroke-width:8}</style>
<path fill="none" stroke="black" d="M92.35,-391.37C90.07,-378.72 86.92,-361.25 84.3,-346.72"/>
<polygon fill="#46a4a4" stroke="black" points="87.73,-346 82.51,-336.78 80.84,-347.24 87.73,-346"/>
</g>
<!-- eclingo_parsing_transformers -->
<g id="node8" class="node">
<title>eclingo_parsing_transformers</title><style>.edge>path:hover{stroke-width:8}</style>
<ellipse fill="#31c4c4" stroke="black" cx="258.43" cy="-107.42" rx="56.64" ry="28.98"/>
<text text-anchor="middle" x="258.43" y="-115.92" font-family="Helvetica,sans-Serif" font-size="10.00" fill="#000000">eclingo.</text>
<text text-anchor="middle" x="258.43" y="-104.92" font-family="Helvetica,sans-Serif" font-size="10.00" fill="#000000">parsing.</text>
<text text-anchor="middle" x="258.43" y="-93.92" font-family="Helvetica,sans-Serif" font-size="10.00" fill="#000000">transformers</text>
</g>
<!-- eclingo_parsing_transformers&#45;&gt;eclingo_parsing -->
<g id="edge16" class="edge">
<title>eclingo_parsing_transformers&#45;&gt;eclingo_parsing</title><style>.edge>path:hover{stroke-width:8}</style>
<path fill="none" stroke="black" d="M258.43,-78.38C258.43,-70.17 258.43,-61.16 258.43,-52.8"/>
<polygon fill="#31c4c4" stroke="black" points="261.93,-52.67 258.43,-42.67 254.93,-52.67 261.93,-52.67"/>
</g>
<!-- eclingo_parsing_transformers_parser_negations&#45;&gt;eclingo_parsing -->
<g id="edge17" class="edge">
<title>eclingo_parsing_transformers_parser_negations&#45;&gt;eclingo_parsing</title><style>.edge>path:hover{stroke-width:8}</style>
<path fill="none" stroke="black" d="M184.93,-282.33C177.94,-261.57 171.44,-234.68 173.43,-210.18"/>
<path fill="none" stroke="black" d="M173.43,-208.18C177.03,-163.99 148.12,-144.82 173.43,-108.42"/>
</g>
<!-- eclingo_parsing_transformers_parser_negations&#45;&gt;eclingo_parsing_transformers -->
<g id="edge18" class="edge">
<title>eclingo_parsing_transformers_parser_negations&#45;&gt;eclingo_parsing_transformers</title><style>.edge>path:hover{stroke-width:8}</style>
<path fill="none" stroke="black" d="M173.43,-208.18C175.76,-179.62 196.36,-155.02 216.69,-137.4"/>
<polygon fill="#2bacac" stroke="black" points="218.97,-140.06 224.44,-130.99 214.5,-134.67 218.97,-140.06"/>
</g>
<!-- eclingo_parsing_transformers_parser_negations&#45;&gt;eclingo_parsing_transformers_theory_parser_epistemic -->
<g id="edge19" class="edge">
<title>eclingo_parsing_transformers_parser_negations&#45;&gt;eclingo_parsing_transformers_theory_parser_epistemic</title><style>.edge>path:hover{stroke-width:8}</style>
<path fill="none" stroke="black" d="M229.4,-285.16C239.11,-274.61 250.02,-262.77 260.24,-251.66"/>
<polygon fill="#2bacac" stroke="black" points="262.99,-253.84 267.19,-244.12 257.84,-249.1 262.99,-253.84"/>
</g>
<!-- eclingo_parsing_transformers_theory_parser_epistemic&#45;&gt;eclingo_parsing -->
<g id="edge20" class="edge">
<title>eclingo_parsing_transformers_theory_parser_epistemic&#45;&gt;eclingo_parsing</title><style>.edge>path:hover{stroke-width:8}</style>
<path fill="none" stroke="black" d="M368.81,-183.61C402.12,-167.23 432.81,-142.41 423.43,-108.42"/>
<path fill="none" stroke="black" d="M423.43,-106.42C409.9,-57.38 350.09,-36.79 306.37,-28.22"/>
<polygon fill="#309191" stroke="black" points="306.93,-24.77 296.47,-26.43 305.69,-31.66 306.93,-24.77"/>
</g>
<!-- eclingo_parsing_transformers_theory_parser_epistemic&#45;&gt;eclingo_parsing_transformers -->
<g id="edge21" class="edge">
<title>eclingo_parsing_transformers_theory_parser_epistemic&#45;&gt;eclingo_parsing_transformers</title><style>.edge>path:hover{stroke-width:8}</style>
<path fill="none" stroke="black" d="M284.22,-172.73C280.65,-163.84 276.82,-154.29 273.23,-145.34"/>
<polygon fill="#309191" stroke="black" points="276.43,-143.9 269.46,-135.92 269.93,-146.5 276.43,-143.9"/>
</g>
<!-- eclingo_prefixes&#45;&gt;eclingo_parsing -->
<g id="edge22" class="edge">
<title>eclingo_prefixes&#45;&gt;eclingo_parsing</title><style>.edge>path:hover{stroke-width:8}</style>
<path fill="none" stroke="black" d="M385.43,-317.72C377.38,-267.67 419.08,-260.68 423.43,-210.18"/>
<path fill="none" stroke="black" d="M423.43,-208.18C427.23,-164 435.23,-151.16 423.43,-108.42"/>
</g>
<!-- eclingo_prefixes&#45;&gt;eclingo_parsing_transformers_theory_parser_epistemic -->
<g id="edge23" class="edge">
<title>eclingo_prefixes&#45;&gt;eclingo_parsing_transformers_theory_parser_epistemic</title><style>.edge>path:hover{stroke-width:8}</style>
<path fill="none" stroke="black" d="M401.22,-463.5C397.84,-432.55 391.15,-371.53 385.43,-319.72"/>
<path fill="none" stroke="black" d="M385.43,-317.72C381.26,-291.78 364.77,-268.38 347.25,-250.08"/>
<polygon fill="#3ab0b0" stroke="black" points="349.27,-247.14 339.72,-242.56 344.32,-252.1 349.27,-247.14"/>
</g>
</g>
</svg>
